<?xml version="1.0" encoding="iso-8859-1"?>
<!-- Generator: Adobe Illustrator 19.0.0, SVG Export Plug-In . SVG Version: 6.00 Build 0)  -->
<svg version="1.1" id="Capa_1" xmlns="http://www.w3.org/2000/svg" xmlns:xlink="http://www.w3.org/1999/xlink" x="0px" y="0px"
	 viewBox="0 0 489.485 489.485" style="enable-background:new 0 0 489.485 489.485;" xml:space="preserve">
<g>
	<path style="fill:#010001;" d="M53.658,203.749c5.755-1.919,10.759-3.086,15.288-3.564c4.437-0.47,7.775-0.689,10.502-0.689
		c2.917,0,5.074,0.249,7.547,0.651l0.699-4.442c0,0-6.828-2.099-15.794-1.365l-0.704-2.417c2.784-0.59,4.874-3.061,4.874-6.02
		c0-3.399-2.756-6.154-6.154-6.154c-3.399,0-6.155,2.755-6.155,6.154c0,2.959,2.089,5.43,4.872,6.019l0.784,2.69
		c-9.52,1.314-17.101,5.034-17.101,5.034L53.658,203.749z"/>
	<path style="fill:#010001;" d="M26.646,221.931c0.223-0.284,0.442-0.554,0.658-0.817l-1.815-1.322l-2.847-2.082
		c-0.167,0.229-4.634,4.337-8.164,11.94c-0.153-0.24-0.327-0.72-0.526-0.939c-1.059-1.167-2.541-1.962-4.415-1.962
		c-0.027,0-0.055,0-0.082,0c-1.172,0-1.966-0.15-2.494-0.616c0.521-0.663,0.834-1.373,0.834-2.281c0-2.153-1.745-3.836-3.897-3.836
		c-2.153,0-3.898,1.776-3.898,3.929c0,2.153,1.745,3.912,3.898,3.912c0.333,0,0.656-0.037,0.965-0.117
		c0.96,1.067,2.485,2,4.713,1.961c1.144-0.019,1.977,0.278,2.545,0.901c0.647,0.709,0.864,1.726,0.928,2.492
		c-0.004,0.009-0.008,0.02-0.011,0.029c-2.544,6.935-1.813,15.559-1.813,15.559l6.155,0.245c0.125-3.143,0.577-8.634,2.166-13.001
		c3.071-8.436,6.906-13.729,7.067-13.95L26.646,221.931z"/>
	<path style="fill:#010001;" d="M133.05,204.649c-2.153,0-3.897,1.745-3.897,3.897c0,0.335,0.046,0.658,0.126,0.968
		c-1.064,0.961-1.992,2.486-1.956,4.711c0.017,1.145-0.277,1.977-0.9,2.546c-0.488,0.445-1.122,0.687-1.719,0.815
		c-4.591-6.411-10.238-10.339-10.238-10.339l-4.42,4.742c3.344,3.046,6.752,6.849,10.075,11.6c2.292,3.275,4.648,7.516,6.619,11.731
		l5.969-2.825c0,0-2.725-6.736-6.565-12.771c0.669-0.237,1.342-0.593,1.926-1.124c1.167-1.058,1.745-2.542,1.715-4.415
		c-0.019-1.217,0.385-2.036,0.862-2.576c0.663,0.521,1.497,0.834,2.404,0.834c2.153,0,3.898-1.746,3.898-3.899
		C136.949,206.394,135.203,204.649,133.05,204.649z"/>
	<path style="fill:#010001;" d="M117.564,258.271c-8.21,3.998-21.729,9.282-39.511,11.757c-6.981,0.972-13.754,1.336-19.975,1.336
		c-8.1,0-15.266-0.616-20.759-1.307c-6.269-0.788-11.17-1.757-14.172-2.429c-0.006-0.002-0.011-0.003-0.018-0.005
		c0.734,2.327,1.622,4.583,2.651,6.739c0.003,0.006,0.005,0.012,0.008,0.019c0.025,0.053,0.051,0.105,0.077,0.158
		c0.125,0.262,0.254,0.523,0.384,0.783c0.124,0.247,0.25,0.491,0.378,0.735c0.033,0.064,0.066,0.127,0.099,0.191
		c1.766,3.328,3.879,6.377,6.296,9.023c8.385,9.182,16.932,10.625,17.018,10.639l0.132,0.021l0.128,0.042
		c0.073,0.024,7.653,2.478,19.18,2.478c11.334,0,22.456-2.285,33.055-6.792c7.85-4.016,15.284-10.121,18.952-15.565
		c2.85-4.205,4.91-8.7,6.128-13.367c0.647-2.485,1.153-6.444,0.859-10.627C126.158,253.639,122.508,255.865,117.564,258.271z"/>
	<path style="fill:#010001;" d="M77.503,265.152c17.053-2.374,29.939-7.414,37.802-11.225c6.534-3.167,10.698-6.031,12.324-7.214
		c-1.615-5.99-6.09-15.391-10.183-21.241c-11.677-16.694-24.28-20.98-30.749-22.048c-2.469-0.409-4.45-0.644-7.246-0.644
		c-2.609,0-5.839,0.212-10.16,0.669c-4.332,0.458-9.159,1.592-14.754,3.466c-7.856,2.631-14.964,6.76-20.552,11.938l-0.187,0.174
		c-0.833,0.77-2.561,2.371-4.548,4.903c-0.245,0.342-3.616,5.388-6.428,13.117C20.713,242.846,21,251.3,21,251.385v0.024
		c0,1.972-0.078,3.943,0.139,5.896c0.003,0.031-0.088,0.063-0.084,0.094c0.027,0.243,0.011,0.486,0.042,0.729
		c0.018,0.137,0.019,0.276,0.038,0.413c0.166,1.238,0.487,2.468,0.737,3.685c0.003,0,0.127,0.002,0.127,0.003c0,0,0,0.001,0,0.001
		C26,263.261,50.289,268.94,77.503,265.152z M100.737,220.048c5.608,0,10.155,4.547,10.155,10.155
		c0,5.608-4.547,10.155-10.155,10.155c-5.608,0-10.155-4.546-10.155-10.155C90.582,224.594,95.128,220.048,100.737,220.048z
		 M52.72,219.639c9.064,0,16.413,7.348,16.413,16.412c0,9.064-7.349,16.411-16.413,16.411c-9.063,0-16.412-7.347-16.412-16.411
		C36.308,226.986,43.657,219.639,52.72,219.639z"/>
</g>
<g>
	<path style="fill:#010001;" d="M170.306,219.196c0.682-1.53,2.535-2.287,5.154-2.287c1.014,0,2.245,0.093,3.61,0.333
		c1.365,0.258,2.488,0.333,2.986,0.333c1.272,0,2.295-0.591,3.236-1.531c0.94-0.941,1.369-2.048,1.369-3.486
		c0-4.242-4.424-6.381-12.909-6.381c-4.851,0-8.668,0.59-11.471,1.863c-2.803,1.198-4.617,3.154-5.724,5.865
		c-1.199,2.638-1.556,6.382-1.556,10.956v4.888h-3.767c-4.925,0-7.396,1.466-7.488,5.118c0,1.53,0.59,2.663,1.696,3.585
		c1.199,1.014,2.896,1.298,5.091,1.298H155v39.337c0,2.969,0.487,5.182,1.852,6.713c1.364,1.531,3.056,2.287,5.085,2.287
		c2.287,0,3.864-0.848,5.229-2.287c1.364-1.623,1.834-3.817,1.834-6.713v-39.337h3.905c2.545,0,4.592-0.141,6.123-0.824
		s2.213-1.96,2.213-4.339c0-3.32-2.804-4.838-8.411-4.838H169v-3.875C169,223.033,169.531,220.819,170.306,219.196z"/>
	<path style="fill:#010001;" d="M225.246,236.294c0-2.545-1.531-4.593-4.427-6.124c-2.896-1.53-5.865-2.287-9-2.287
		c-3.136,0-5.533,0.849-7.396,2.287c-1.864,1.531-3.745,3.818-5.441,6.806c-0.092-2.97-0.682-5.349-1.696-6.806
		c-1.199-1.53-2.796-2.287-5.249-2.287c-4.758,0-7.037,3.319-7.037,9.941v41.056c0,2.97,0.582,5.183,1.946,6.713
		c1.273,1.531,3.104,2.288,5.134,2.288c2.028,0,3.671-0.683,5.111-2.213c1.364-1.531,1.809-3.745,1.809-6.714v-12.246
		c0-4.427,0.471-8.244,0.544-11.472c0.333-3.154,0.955-5.773,1.729-7.986c0.849-2.287,1.917-3.91,3.281-5.091
		c1.364-1.199,3.181-1.697,5.376-1.697c1.531,0,3.333,0.332,5.454,1.015c2.121,0.682,3.327,1.014,3.917,1.014
		c1.531,0,2.807-0.59,4.08-1.697C224.653,239.522,225.246,238.156,225.246,236.294z"/>
	<path style="fill:#010001;" d="M276.243,260.272c2.213-1.015,3.228-3.533,3.228-7.185c0-4.076-1.015-8.009-3.154-11.845
		c-2.048-3.91-5.091-7.058-9.258-9.53c-4.077-2.471-9.001-3.75-14.792-3.75c-4.5,0-8.577,0.68-12.155,2.045
		c-3.578,1.364-6.713,3.484-9.093,6.122c-2.471,2.638-4.426,5.864-5.699,9.608c-1.273,3.744-1.956,7.728-1.956,12.154
		c0,9.258,2.638,16.489,7.821,21.93c5.182,5.441,12.579,8.078,22.095,8.078c4.168,0,7.729-0.589,10.956-1.622
		c3.228-1.014,5.866-2.472,7.987-4.076c2.121-1.624,3.743-3.32,4.758-5.091c1.015-1.696,1.623-3.319,1.623-4.592
		c0-1.531-0.424-2.638-1.364-3.486c-0.941-0.848-2.213-1.273-3.744-1.273c-1.365,0-2.472,0.259-3.228,0.941
		c-1.863,1.623-3.32,2.968-4.5,4.076c-1.199,1.014-2.472,1.955-3.818,2.896c-1.346,0.939-2.803,1.53-4.242,1.954
		c-1.531,0.333-3.154,0.59-4.851,0.59c-2.545,0-4.925-0.682-7.138-1.955c-2.047-1.273-3.91-3.134-5.182-5.68
		c-1.273-2.638-1.956-5.832-1.956-8.832h28.809C271.153,261.749,274.122,261.12,276.243,260.272z M238.415,253.749
		c0.59-5,1.955-8.995,4.243-11.541c2.287-2.545,5.348-3.935,9-3.935c3.91,0,7.045,1.449,9.351,3.994
		c2.286,2.545,3.744,5.482,4.076,11.482H238.415z"/>
	<path style="fill:#010001;" d="M337.348,260.272c2.213-1.015,3.228-3.533,3.228-7.185c0-4.076-1.015-8.009-3.154-11.845
		c-2.047-3.91-5.09-7.058-9.259-9.53c-4.076-2.471-9-3.75-14.792-3.75c-4.5,0-8.576,0.68-12.154,2.045
		c-3.579,1.364-6.714,3.484-9.093,6.122c-2.471,2.638-4.427,5.864-5.699,9.608c-1.273,3.744-1.955,7.728-1.955,12.154
		c0,9.258,2.637,16.489,7.819,21.93c5.183,5.441,12.579,8.078,22.096,8.078c4.168,0,7.728-0.589,10.956-1.622
		c3.227-1.014,5.864-2.472,7.985-4.076c2.048-1.624,3.744-3.32,4.758-5.091c1.199-1.696,1.624-3.319,1.624-4.592
		c0-1.531-0.425-2.638-1.365-3.486c-0.941-0.848-2.213-1.273-3.744-1.273c-1.365,0-2.472,0.259-3.228,0.941
		c-1.863,1.623-3.32,2.968-4.501,4.076c-1.199,1.014-2.471,1.955-3.818,2.896c-1.346,0.939-2.803,1.53-4.242,1.954
		c-1.531,0.333-3.154,0.59-4.851,0.59c-2.544,0-4.924-0.682-7.138-1.955c-2.046-1.273-3.909-3.134-5.182-5.68
		c-1.273-2.638-1.955-5.832-1.955-8.832h28.901C332.516,261.749,335.577,261.12,337.348,260.272z M299.796,253.749
		c0.424-5,1.955-8.995,4.242-11.541c2.287-2.545,5.349-3.935,9-3.935c3.911,0,7.046,1.449,9.352,3.994
		c2.287,2.545,3.743,5.482,4.076,11.482H299.796z"/>
	<path style="fill:#010001;" d="M392.254,231.609c-3.817-2.287-7.986-3.485-12.486-3.485c-3.817,0-7.087,0.848-10.149,2.471
		c-3.061,1.623-5.619,4.076-8.619,7.488v-1.697c0-2.637-0.732-4.758-2.263-6.197c-1.272-1.531-2.994-2.213-5.114-2.213
		c-2.122,0-3.663,0.682-4.842,2.048c-1.273,1.365-1.781,3.486-1.781,6.196v63.668c0,3.154,0.329,5.533,1.269,7.304
		c0.941,1.697,2.88,2.545,5.609,2.545c4.758,0,7.122-3.228,7.122-9.684v-22.206c2,3.319,5.225,5.773,8.121,7.488
		c2.896,1.697,6.394,2.546,10.562,2.546c3.486,0,6.775-0.683,9.836-2.048c2.97-1.365,5.685-3.32,7.806-5.865
		c2.287-2.637,4.068-5.772,5.341-9.609c1.365-3.818,1.951-7.986,1.951-12.486c0-6.125-1.201-11.473-3.322-15.973
		C399.155,237.401,396.091,233.914,392.254,231.609z M387.92,267.999c-1.199,2.803-2.896,4.924-4.924,6.382
		c-2.047,1.364-4.427,2.046-6.806,2.046c-4.077,0-7.489-1.623-10.292-4.851s-4.168-7.728-4.168-13.593
		c0-6.196,1.365-10.882,4.168-14.109c2.803-3.227,6.197-4.851,10.292-4.851c2.638,0,4.924,0.683,7.045,2.213
		c2.121,1.531,3.818,3.745,4.924,6.456c1.199,2.804,1.697,6.124,1.697,10.033C389.875,261.783,389.285,265.177,387.92,267.999z"/>
	<path style="fill:#010001;" d="M419.459,228.124c-2.213,0-3.987,0.682-5.427,2.213c-1.272,1.531-2.032,3.744-2.032,6.621v42.328
		c0,2.804,0.667,5.091,2.032,6.622c1.365,1.53,3.193,2.287,5.388,2.287c2.047,0,4.003-0.849,5.441-2.287
		c1.365-1.531,2.139-3.745,2.139-6.714v-42.661c0-2.637-0.755-4.758-2.12-6.123C423.443,228.806,421.672,228.124,419.459,228.124z"
		/>
	<path style="fill:#010001;" d="M424.642,208.573c-1.531-1.273-3.154-1.863-5.091-1.863s-3.744,0.682-5.183,2.048
		c-1.53,1.364-2.213,3.153-2.213,5.182c0,2.287,0.683,4.077,2.213,5.348c1.365,1.273,3.154,1.863,5.183,1.863
		c1.955,0,3.744-0.682,5.091-1.955c1.531-1.272,2.213-2.969,2.213-5.349C426.855,211.561,426.173,209.864,424.642,208.573z"/>
	<path style="fill:#010001;" d="M488.734,277.681c-0.424-0.941-1.272-2.286-2.471-4.076l-15.124-23.792l7.82-7.138
		c4.076-3.577,6.031-6.455,6.031-8.668c0-1.697-0.59-3.228-1.862-4.427c-1.273-1.199-2.805-1.696-4.593-1.696
		c-1.531,0-2.896,0.332-3.91,1.199c-1.199,0.848-2.827,2.213-4.948,4.426L453,250.938v-35.725c0-2.97-0.401-5.349-1.767-6.806
		c-1.364-1.438-3.059-2.287-5.345-2.287c-2.472,0-3.96,0.849-5.233,2.545S439,212.907,439,216.153v62.893
		c0,2.97,0.522,5.184,1.794,6.714c1.273,1.531,2.89,2.287,5.269,2.287c1.955,0,3.515-0.849,4.954-2.287
		c1.531-1.531,1.984-3.744,1.984-6.622v-11.73l8.175-7.489l13.189,21.414c1.623,2.545,3.016,4.242,3.865,5.182
		c0.94,1.015,2.31,1.531,4.191,1.531c2.048,0,3.831-0.682,5.103-2.047c1.364-1.365,1.962-3.228,1.962-5.533
		C489.392,279.471,489.158,278.622,488.734,277.681z"/>
</g>
<g>
</g>
<g>
</g>
<g>
</g>
<g>
</g>
<g>
</g>
<g>
</g>
<g>
</g>
<g>
</g>
<g>
</g>
<g>
</g>
<g>
</g>
<g>
</g>
<g>
</g>
<g>
</g>
<g>
</g>
</svg>
